<?xml version="1.0" encoding="UTF-8" standalone="no"?>
<!-- Created with Inkscape (http://www.inkscape.org/) -->

<svg
   width="115.76764mm"
   height="120.8688mm"
   viewBox="0 0 115.76764 120.8688"
   version="1.1"
   id="svg1"
   xml:space="preserve"
   xmlns="http://www.w3.org/2000/svg"
   xmlns:svg="http://www.w3.org/2000/svg"><defs
     id="defs1" /><g
     id="layer1"
     transform="translate(-44.729486,-75.194665)"><path
       style="display:inline;fill:#f46002;fill-opacity:1;stroke:none;stroke-width:7.8;stroke-linecap:butt;stroke-dasharray:none;stroke-opacity:1;paint-order:normal"
       d="M 82.137881,195.87452 H 44.729484 V 75.336354 h 42.509543 l -4.06608,7.042655 H 51.578245 V 188.83683 h 26.403146 l 5.620706,-27.25334 c 0,0 0.236165,-0.73214 0.09447,-1.67677 -0.141701,-0.94465 -0.921042,-1.81846 -0.921042,-1.81846 L 60.930342,125.78101 c 0,0 -0.82355,-1.48424 -0.944655,-2.78674 -0.1057,-1.13681 0.330629,-2.03101 0.330629,-2.03101 L 76.469943,95.693702 c 0,0 1.275286,-2.456108 3.022899,-3.353532 1.747615,-0.897422 5.99857,-0.614027 5.99857,-0.614027 l 25.505728,11.288647 c 0,0 1.03912,8.31297 -1.70039,10.48569 -2.7395,2.17271 -5.43177,5.29007 -9.729958,5.43177 -4.298185,0.1417 -9.115935,-1.88931 -9.115935,-1.88931 l -0.991889,2.45611 c 0,0 6.376432,1.74761 8.407442,3.58969 2.031014,1.84208 12.0916,17.57061 12.0916,17.57061 l 0.0945,9.77719 -14.028149,-20.78244 c 0,0 -0.141698,-1.51145 -1.605915,-2.45611 -1.464217,-0.94465 -13.839219,-5.52624 -13.839219,-5.52624 0,0 3.920326,-2.69227 4.628817,-5.6207 0.708493,-2.92844 0.188931,-8.07682 0.188931,-8.07682 l 7.651718,4.39266 c 0,0 1.889313,1.13359 3.164599,1.13359 1.275286,0 6.707058,-0.61403 7.982348,-1.93655 1.27529,-1.32252 1.70038,-5.00668 1.70038,-5.00668 L 82.657441,96.874522 66.031488,122.75811 88.325379,156.67128 c 0,0 0.779343,1.03912 0.921043,2.3144 0.141698,1.27529 -7.108541,36.88884 -7.108541,36.88884 z"
       id="path9" /><path
       style="display:inline;fill:#f46002;fill-opacity:1;stroke:none;stroke-width:7.8;stroke-linecap:butt;stroke-dasharray:none;stroke-opacity:1;paint-order:normal"
       d="m 106.13216,75.289121 h 54.36497 V 196.06345 h -56.39599 c 0,0 -4.00298,-0.12988 -4.912211,-3.29448 -0.620053,-2.15812 0.2834,-5.77422 0.2834,-5.77422 l 3.070131,-13.17796 c 0,0 0.31095,-1.15465 -0.0827,-1.75942 -0.42836,-0.65818 -1.71219,-0.60222 -1.71219,-0.60222 l -2.833965,0.0945 0.897424,-3.54247 13.933681,-1.74761 -4.95944,21.18393 c 0,0 -0.26731,0.8651 0.24793,1.31069 0.37786,0.32678 1.31072,0.22437 1.31072,0.22437 h 13.98091 v -28.198 l 5.99857,-8.21851 c 0,0 0.75573,-0.56679 1.36975,-1.60591 0.61403,-1.03913 4.15649,-18.42081 4.15649,-18.42081 l -9.54103,8.02958 -8.40744,-8.12404 -14.68941,-7.69895 14.83111,-25.033398 c 0,0 1.09032,-2.277271 1.22805,-3.211832 0.26719,-1.813023 -0.82539,-2.550573 -0.82539,-2.550573 l -6.59016,-3.589694 c 0,0 -0.33063,-0.377863 -1.03912,-0.09447 -0.7085,0.283398 -6.77583,11.177567 -6.77583,11.177567 l -4.936525,-2.47903 5.713785,-10.824015 c 0,0 0.52529,-0.927955 0.33636,-1.305818 -0.0284,-0.0568 -0.30904,-0.567797 -0.62355,-0.770846 -1.77788,-1.147806 -7.22283,-3.827438 -7.22283,-3.827438 l -8.918424,12.981473 -4.844433,-2.83831 11.779146,-17.18088 13.130721,6.895992 c 0,0 0.2834,0.141698 0.51956,0.614026 0.23617,0.472329 0.51957,1.558685 0.51957,1.558685 0,0 1.18082,-0.04723 2.03101,0.04723 0.85019,0.09447 2.69227,1.039125 2.69227,1.039125 l 7.65172,4.250952 c 0,0 1.98378,1.180822 2.26717,1.889313 0.2834,0.708493 0.4251,4.01479 0.4251,4.01479 l -0.99189,5.998571 -13.13073,21.1603 9.96613,5.14838 5.85687,5.85687 13.17796,-11.9499 1.88931,5.24284 c 0,0 0.51956,0.85019 0.51956,1.79485 0,0.94465 -0.33063,3.448 -0.33063,3.448 l -3.87309,17.33444 c 0,0 -0.33063,2.7395 -1.08635,3.77863 -0.75573,1.03912 -1.88932,2.64503 -1.88932,2.64503 l -5.00668,6.896 v 25.78912 h 24.93893 V 82.232346 h -34.14933 z"
       id="path10" /><path
       style="display:inline;fill:#f46002;fill-opacity:1;stroke:none;stroke-width:7.8;stroke-linecap:butt;stroke-dasharray:none;stroke-opacity:1;paint-order:normal"
       d="m 121.63788,102.76765 0.80157,-1.20235 c 0,0 -0.16699,-0.2338 0.63458,-0.36739 0.80156,-0.13359 1.46954,0.80157 1.46954,0.80157 l 5.37718,4.27502 c 0,0 1.03536,0.53438 1.16895,1.40275 0.1336,0.86836 -0.70137,1.97052 -0.70137,1.97052 l -13.52645,17.3339 4.04123,3.33986 13.76025,-16.83292 4.45872,5.11835 c 0,0 0.60818,0.71171 0.68467,1.26079 0.0892,0.64059 -1.39439,1.87868 -1.39439,1.87868 l 2.09576,5.73622 3.74065,-4.34183 c 0,0 1.17361,-1.2206 1.25245,-3.20627 0.0703,-1.77079 -0.95186,-3.23967 -0.95186,-3.23967 l -6.14535,-7.3811 c 0,0 -0.26719,-0.46758 -0.76817,-0.66797 -0.50098,-0.20039 -1.33595,-0.66797 -1.33595,-0.66797 0,0 0.1002,-1.73673 -0.20039,-2.5049 -0.30059,-0.76817 -2.37131,-2.87229 -2.37131,-2.87229 l -6.81332,-5.978354 c 0,0 -2.07071,-0.667975 -2.83888,-0.701374 -0.76817,-0.0334 -3.27307,1.870326 -3.27307,1.870326 z"
       id="path11" /><circle
       style="display:inline;fill:#f46002;fill-opacity:1;stroke:none;stroke-width:7.8;stroke-linecap:butt;stroke-dasharray:none;stroke-opacity:1;paint-order:normal"
       id="path12"
       r="5.0066795"
       cy="158.46613"
       cx="109.58015" /></g></svg>
